<svg id="Ebene_1" data-name="Ebene 1" xmlns="http://www.w3.org/2000/svg" viewBox="0 0 2000 800"><defs><style>.cls-1,.cls-3{fill:#fff;}.cls-2{fill:#aa3fbc;}.cls-3{font-size:217.66px;font-family:Montserrat-SemiBold, Montserrat;font-weight:600;}.cls-4{letter-spacing:-0.01em;}.cls-5{letter-spacing:-0.01em;}.cls-6{letter-spacing:0em;}.cls-7{letter-spacing:-0.02em;}.cls-8{letter-spacing:0em;}</style></defs><path class="cls-1" d="M482.17,402a62.21,62.21,0,0,0-49.67-60.92,7.62,7.62,0,0,0-9.11,7.49v10.78a7.58,7.58,0,0,0,5.78,7.4,35.13,35.13,0,0,1,0,68.37,7.59,7.59,0,0,0-5.78,7.4v12.91a7.62,7.62,0,0,0,9.11,7.49A62.21,62.21,0,0,0,482.17,402ZM423.39,295.64v11.09a7.64,7.64,0,0,0,6.87,7.59,87.1,87.1,0,0,1,0,173.23,7.64,7.64,0,0,0-6.87,7.59v13.22a7.65,7.65,0,0,0,8.43,7.6,114.57,114.57,0,0,0,0-227.92A7.65,7.65,0,0,0,423.39,295.64Z"/><path class="cls-1" d="M304.27,343.52l-56.81-.3a9.93,9.93,0,0,0-10,9.93v97.07a9.92,9.92,0,0,0,9.87,9.92l57,.31a10,10,0,0,1,5.81,1.91l70.61,51.7a9.92,9.92,0,0,0,15.79-8V298a9.92,9.92,0,0,0-15.79-8L310.18,341.6A9.9,9.9,0,0,1,304.27,343.52Z"/><path class="cls-2" d="M793.72,130.5a1.5,1.5,0,0,0,0-3,1.5,1.5,0,0,0,0,3Z"/><path class="cls-2" d="M793.72,130.5a1.5,1.5,0,0,0,0-3,1.5,1.5,0,0,0,0,3Z"/><text class="cls-3" transform="translate(588.04 474.01)">C<tspan class="cls-4" x="158.24" y="0">r</tspan><tspan class="cls-5" x="247.48" y="0">e</tspan><tspan class="cls-6" x="379.6" y="0">a</tspan><tspan class="cls-7" x="511.72" y="0">t</tspan><tspan class="cls-8" x="600.1" y="0">e HC</tspan></text></svg>