<?xml version="1.0" encoding="UTF-8" standalone="no"?>
<svg
   xmlns:dc="http://purl.org/dc/elements/1.1/"
   xmlns:cc="http://creativecommons.org/ns#"
   xmlns:rdf="http://www.w3.org/1999/02/22-rdf-syntax-ns#"
   xmlns:svg="http://www.w3.org/2000/svg"
   xmlns="http://www.w3.org/2000/svg"
   viewBox="0 0 2666.6667 2666.6667"
   height="2666.6667"
   width="2666.6667"
   xml:space="preserve"
   id="svg2"
   version="1.1"><metadata
     id="metadata8"><rdf:RDF><cc:Work
         rdf:about=""><dc:format>image/svg+xml</dc:format><dc:type
           rdf:resource="http://purl.org/dc/dcmitype/StillImage" /><dc:title></dc:title></cc:Work></rdf:RDF></metadata><defs
     id="defs6"><clipPath
       id="clipPath20"
       clipPathUnits="userSpaceOnUse"><path
         id="path18"
         d="M 0,2000 H 2000 V 0 H 0 Z" /></clipPath></defs><g
     transform="matrix(1.3333333,0,0,-1.3333333,0,2666.6667)"
     id="g10"><path
       id="path12"
       style="fill:#8f299e;fill-opacity:1;fill-rule:nonzero;stroke:none"
       d="M 0,0 H 2000 V 2000 H 0 Z" /><g
       id="g14"><g
         clip-path="url(#clipPath20)"
         id="g16"><g
           transform="translate(1749.3076,952.1699)"
           id="g22"><path
             id="path24"
             style="fill:#ffffff;fill-opacity:1;fill-rule:nonzero;stroke:none"
             d="m 0,0 c -25.682,-25.682 -67.321,-25.682 -93.003,0 -19.599,19.599 -24.223,48.485 -13.908,72.486 L -279.912,246.879 -478.507,48.285 -304.249,-125.973 c 23.608,9.27 51.492,4.378 70.571,-14.702 25.682,-25.681 25.682,-67.32 0,-93.002 -25.681,-25.682 -67.32,-25.682 -93.002,0 -19.76,19.76 -24.299,48.96 -13.652,73.076 L -531.54,30.607 c -4.689,4.688 -7.322,11.047 -7.322,17.678 0,6.63 2.633,12.989 7.322,17.677 l 234.021,234.021 c 4.689,4.689 11.049,7.323 17.678,7.323 h 0.05 c 6.648,-0.014 13.017,-2.674 17.698,-7.394 L -71.188,107.472 C -47.452,117.07 -19.246,112.249 0,93.003 25.682,67.321 25.682,25.682 0,0 M -497.589,-438.371 -688.54,-629.322 c 9.883,-23.845 5.142,-52.323 -14.246,-71.71 -25.682,-25.682 -67.32,-25.682 -93.003,0 -25.682,25.682 -25.682,67.321 0,93.003 19.457,19.457 48.069,24.159 71.966,14.134 l 173.201,173.202 -172.978,172.978 c -23.942,-10.148 -52.671,-5.48 -72.189,14.038 -25.682,25.682 -25.682,67.321 0,93.002 25.683,25.683 67.321,25.683 93.003,0 19.327,-19.326 24.104,-47.686 14.343,-71.485 l 190.854,-190.856 c 9.763,-9.763 9.763,-25.592 0,-35.355 M -936.025,95.195 c 25.682,-25.682 25.682,-67.321 0,-93.003 -25.682,-25.682 -67.32,-25.682 -93.002,0 -19.195,19.195 -24.038,47.3 -14.541,70.998 l -190.971,190.97 c -4.689,4.689 -7.322,11.048 -7.322,17.678 0,6.63 2.633,12.989 7.322,17.678 l 191.284,191.283 c -9.907,23.853 -5.171,52.352 14.228,71.751 25.682,25.681 67.32,25.681 93.002,0 25.682,-25.682 25.682,-67.321 0,-93.003 -19.446,-19.446 -48.035,-24.154 -71.924,-14.152 l -173.557,-173.557 172.814,-172.814 c 24.037,10.417 53.019,5.819 72.667,-13.829 m -0.876,-562.988 c -25.682,-25.682 -67.321,-25.682 -93.003,0 -19.465,19.465 -24.163,48.092 -14.122,71.994 l -383.358,383.358 c -23.646,-9.366 -51.623,-4.495 -70.752,14.633 -25.682,25.682 -25.682,67.321 0,93.003 25.682,25.682 67.321,25.682 93.003,0 19.713,-19.713 24.276,-48.82 13.727,-72.903 l 382.824,-382.824 c 23.839,9.868 52.301,5.121 71.681,-14.258 25.681,-25.683 25.681,-67.321 0,-93.003 m 141.112,1171.171 c -25.682,25.683 -25.682,67.321 0,93.003 25.683,25.682 67.321,25.682 93.003,0 19.511,-19.511 24.183,-48.227 14.048,-72.164 l 191.149,-191.149 c 9.763,-9.763 9.763,-25.592 0,-35.355 L -688.177,307.125 c 9.4,-23.66 4.537,-51.671 -14.609,-70.817 -25.682,-25.682 -67.32,-25.682 -93.003,0 -25.682,25.682 -25.682,67.321 0,93.003 19.696,19.695 48.77,24.268 72.841,13.754 l 172.326,172.326 -173.656,173.655 c -23.804,-9.774 -52.178,-5.001 -71.511,14.332 M 227.284,94.814 -702.324,1024.421 c -25.948,25.949 -68.019,25.949 -93.968,0 L -1725.899,94.814 c -25.948,-25.949 -25.948,-68.019 0,-93.967 l 929.607,-929.609 c 25.949,-25.948 68.02,-25.948 93.968,0 L 227.284,0.847 c 25.948,25.948 25.948,68.018 0,93.967" /></g></g></g></g></svg>