<svg id="Edit" xmlns="http://www.w3.org/2000/svg" viewBox="0 0 2000 2000"><defs><style>.cls-1{fill:#fff;}</style></defs><path id="Active" class="cls-1" d="M1976.59,953,1047,23.41a66.43,66.43,0,0,0-94,0L23.41,953a66.43,66.43,0,0,0,0,94L953,1976.59a66.43,66.43,0,0,0,94,0L1976.59,1047A66.43,66.43,0,0,0,1976.59,953ZM953.52,344.45a65.76,65.76,0,1,1,107-20.84l191.15,191.15a25,25,0,0,1,0,35.36L1061.13,740.71a65.78,65.78,0,1,1-34.77-35.94l172.33-172.33L1025,358.78A65.77,65.77,0,0,1,953.52,344.45ZM812.41,1515.62a65.77,65.77,0,0,1-107.13-72L321.92,1060.27a65.76,65.76,0,1,1,36-34.73l382.83,382.82a65.77,65.77,0,0,1,71.68,107.26Zm.87-563a65.76,65.76,0,1,1-107.54,22l-191-191a25,25,0,0,1,0-35.36L706.05,557a65.76,65.76,0,1,1,35.31,35.41L567.8,766,740.62,938.81A65.75,65.75,0,0,1,813.28,952.64Zm438.44,533.56-191,191a65.77,65.77,0,1,1-35.29-35.43l173.21-173.2-173-173a65.75,65.75,0,1,1,35.15-35.55l190.86,190.86A25,25,0,0,1,1251.72,1486.2Zm497.59-438.37a65.76,65.76,0,0,1-106.91-72.49L1469.4,801l-198.6,198.6,174.26,174.25a65.78,65.78,0,1,1-36.08,34.63l-191.21-191.21a25,25,0,0,1,0-35.35l234-234a25,25,0,0,1,17.68-7.33h0a25,25,0,0,1,17.69,7.4l190.91,192.44a65.77,65.77,0,0,1,71.19,107.47Z"/></svg>